<svg id="图层_1" data-name="图层 1" xmlns="http://www.w3.org/2000/svg" xmlns:xlink="http://www.w3.org/1999/xlink" viewBox="0 0 204.9 42.83"><defs><clipPath id="clip-path" transform="translate(-14.67 -1.1)"><rect id="SVGID" x="14.68" y="1.11" width="38.42" height="38.47" style="fill:none"/></clipPath></defs><g style="clip-path:url(#clip-path)"><path d="M40.51,1.1H18.65a4,4,0,0,0-4,4V26.93a4,4,0,0,0,4,4H40.51a4,4,0,0,0,4-4V5.07a4,4,0,0,0-4-4Zm0,0" transform="translate(-14.67 -1.1)" style="fill:#0065f3"/><path d="M49,9.38H27.12a4,4,0,0,0-4,4V35.21a4,4,0,0,0,4,4H49a4,4,0,0,0,4-4V13.35a4,4,0,0,0-4-4Zm0,0" transform="translate(-14.67 -1.1)" style="fill:#82b6fa"/><path d="M26.93,9.72H48.79a3.63,3.63,0,0,1,3.62,3.63V35.21a3.63,3.63,0,0,1-3.62,3.63H26.93a3.62,3.62,0,0,1-3.63-3.63V13.35a3.62,3.62,0,0,1,3.63-3.63ZM53.1,13.35A4.32,4.32,0,0,0,48.79,9H26.93a4.32,4.32,0,0,0-4.32,4.32V35.21a4.32,4.32,0,0,0,4.32,4.32H48.79a4.32,4.32,0,0,0,4.31-4.32Zm0,0" transform="translate(-14.67 -1.1)" style="fill:#fff"/></g><path d="M47.19,23.3,44.88,21a.39.39,0,0,1-.1-.25V17.47a.36.36,0,0,0-.11-.26.37.37,0,0,0-.25-.1H41.15A.34.34,0,0,1,40.9,17l-2.32-2.31a.36.36,0,0,0-.51,0L35.76,17a.33.33,0,0,1-.25.11H32.24a.39.39,0,0,0-.25.1.36.36,0,0,0-.11.26v3.27a.39.39,0,0,1-.1.25L29.47,23.3a.35.35,0,0,0,0,.51l2.3,2.31a.36.36,0,0,1,.11.26v3.26a.37.37,0,0,0,.36.37h3.27a.33.33,0,0,1,.25.1l2.31,2.31a.36.36,0,0,0,.51,0l2.31-2.31a.35.35,0,0,1,.26-.1h3.26a.38.38,0,0,0,.37-.37V26.38a.35.35,0,0,1,.1-.26l2.31-2.31a.33.33,0,0,0,.11-.25.36.36,0,0,0-.11-.26Zm-4.46-1.71-5.08,5.08a.37.37,0,0,1-.52,0l-3-3a.36.36,0,0,1,0-.52l.61-.6A.34.34,0,0,1,35,22.4a.36.36,0,0,1,.26.11l2.18,2.18,4.22-4.22a.37.37,0,0,1,.52,0l.6.61a.36.36,0,0,1,0,.51Zm0,0" transform="translate(-14.67 -1.1)" style="fill:#fff"/><path d="M74.3,7.67c1.06,0,2.57,0,4.53.08l2.34,0L80.6,12l-2.18-.07c-2.52-.05-4.09-.08-4.72-.08H72a6.8,6.8,0,0,0-5.11,1.74q-1.68,1.74-2.21,5.62L64,24.65c-.1,1-.15,1.71-.15,2.11a5.36,5.36,0,0,0,1.3,4c.87.83,2.3,1.24,4.29,1.24h1.81c1.33,0,3.49-.08,6.48-.26l1,0-.3,4.15q-3.7.3-7.51.3H69.1q-5,0-7.32-2.15t-2.34-6.64a27.56,27.56,0,0,1,.19-2.94l.57-5Q61,13.26,64,10.48t8.69-2.81Z" transform="translate(-14.67 -1.1)" style="fill:#fff"/><path d="M99.82,16.67q-2-1.83-5.86-1.83H93.2c-3,0-5.34.76-7,2.28a10.72,10.72,0,0,0-3,6.81l-.37,3.17a13.38,13.38,0,0,0-.12,1.77,6.79,6.79,0,0,0,2.13,5.43c1.42,1.24,3.66,1.85,6.7,1.85h1.85a58.07,58.07,0,0,0,6-.34l.41-3.92q-4,.34-6,.34H92a6,6,0,0,1-3.76-.92,3.51,3.51,0,0,1-1.11-2.85c0-.2,0-.58.07-1.13v0h14.07l.42-3.4a14.72,14.72,0,0,0,.11-1.81A7,7,0,0,0,99.82,16.67Zm-2.43,6.92v0H87.66q.6-4.93,5-4.94h.76a4.18,4.18,0,0,1,3,.94,3.7,3.7,0,0,1,1,2.76C97.46,22.64,97.44,23,97.39,23.59Z" transform="translate(-14.67 -1.1)" style="fill:#fff"/><path d="M117.31,19.1c-1.56-.05-2.57-.07-3-.07a5,5,0,0,0-3.62,1.15A6,6,0,0,0,109.16,24l-1.51,12h-4.34l1.47-11.92q.57-4.78,2.89-6.94T114.78,15c1.26,0,2.32,0,3.21.11Z" transform="translate(-14.67 -1.1)" style="fill:#fff"/><path d="M118.59,19l.49-4h4.75l.64-5.35h4.34L128.17,15h6.41l-.49,4h-6.41l-1.17,9.62a4.45,4.45,0,0,0,0,.71A2.22,2.22,0,0,0,129,31.89c.71,0,2,0,3.77-.07l-.49,4.11c-1,0-2.26.07-3.77.07a7.35,7.35,0,0,1-4.79-1.39,5.07,5.07,0,0,1-1.7-4.15c0-.2,0-.58.08-1.13L123.3,19Z" transform="translate(-14.67 -1.1)" style="fill:#fff"/><path d="M152.86,16.67q-2-1.83-5.87-1.83h-.75q-4.53,0-7,2.28a10.62,10.62,0,0,0-3,6.81l-.38,3.17a15.29,15.29,0,0,0-.11,1.77,6.79,6.79,0,0,0,2.13,5.43c1.42,1.24,3.65,1.85,6.7,1.85h1.84a58.07,58.07,0,0,0,6-.34l.42-3.92c-2.67.23-4.65.34-6,.34H145a6,6,0,0,1-3.75-.92,3.51,3.51,0,0,1-1.11-2.85c0-.2,0-.58.07-1.13v0h14.07l.42-3.4a17,17,0,0,0,.11-1.81A7,7,0,0,0,152.86,16.67Zm-2.43,6.92v0h-9.74q.6-4.93,5.06-4.94h.75a4.21,4.21,0,0,1,3,.94,3.7,3.7,0,0,1,1,2.76C150.5,22.64,150.48,23,150.43,23.59Z" transform="translate(-14.67 -1.1)" style="fill:#fff"/><path d="M173.36,16.84A8.38,8.38,0,0,0,167.48,15h-1c-.76,0-1.64,0-2.66.08l-2.13.11-1.1.08L160,19.1q2.67-.18,6-.18h1a4.42,4.42,0,0,1,3.06.9,3.1,3.1,0,0,1,1,2.38,2.53,2.53,0,0,1,0,.53l0,.3h-6.33a12.28,12.28,0,0,0-4.32.62,4.88,4.88,0,0,0-2.51,2,9.57,9.57,0,0,0-1.21,3.71c0,.21,0,.49,0,.87a5.49,5.49,0,0,0,1.7,4.17A6.32,6.32,0,0,0,162.8,36h10.94l1.55-13c0-.55.07-.94.07-1.17A6.41,6.41,0,0,0,173.36,16.84Zm-3.47,15.24h-6.56a2.55,2.55,0,0,1-1.79-.58,2.18,2.18,0,0,1-.63-1.68l0-.46a2.77,2.77,0,0,1,1-2.05,3.79,3.79,0,0,1,2.28-.55l6.26,0Z" transform="translate(-14.67 -1.1)" style="fill:#fff"/><path d="M183.47,36.15q-3.47-.07-6-.3l.57-4.07c2.46.22,4.44.36,5.92.41h1.28a6.83,6.83,0,0,0,3.38-.6,2.55,2.55,0,0,0,1.19-1.74,3.45,3.45,0,0,0,0-.52,1.84,1.84,0,0,0-.3-1.25,1.36,1.36,0,0,0-.86-.57c-.41-.09-1.17-.21-2.3-.33l-.87-.12a17.31,17.31,0,0,1-3.74-.68,4.2,4.2,0,0,1-2.07-1.52A4.7,4.7,0,0,1,179,22.2c0-.23,0-.62.07-1.17a6.94,6.94,0,0,1,1.32-3.61,5.85,5.85,0,0,1,3-1.86,17.16,17.16,0,0,1,4.86-.57h1.55l5.32,0-.49,4h-6.87a13.39,13.39,0,0,0-2.52.17,2.46,2.46,0,0,0-1.27.56,2.08,2.08,0,0,0-.51,1.15,3.11,3.11,0,0,0,0,.49,1.57,1.57,0,0,0,.34,1,2,2,0,0,0,1.12.62,26.15,26.15,0,0,0,2.73.4,18.33,18.33,0,0,1,3.89.72,3.8,3.8,0,0,1,2,1.54,5.25,5.25,0,0,1,.69,2.83,8.6,8.6,0,0,1-.07,1.29q-.45,3.51-2.64,4.92t-6.72,1.41Z" transform="translate(-14.67 -1.1)" style="fill:#fff"/><polygon points="204.9 13.89 189.47 42.83 184.87 42.83 189.54 34.04 182.94 13.89 187.66 13.89 192.22 28.83 192.34 28.83 200.29 13.89 204.9 13.89" style="fill:#fff"/></svg>