<?xml version="1.0" encoding="utf-8"?>
<!-- Generator: Adobe Illustrator 25.0.0, SVG Export Plug-In . SVG Version: 6.00 Build 0)  -->
<svg version="1.1" id="图层_1" xmlns="http://www.w3.org/2000/svg" xmlns:xlink="http://www.w3.org/1999/xlink" x="0px" y="0px"
	 viewBox="0 0 12 12" style="enable-background:new 0 0 12 12;" xml:space="preserve">
<style type="text/css">
	.st0{clip-path:url(#SVGID_1_);fill:#0065F3;}
	.st1{clip-path:url(#SVGID_1_);fill:#82B6FA;}
	.st2{clip-path:url(#SVGID_1_);fill:#FFFFFF;}
	.st3{fill:#FFFFFF;}
</style>
<g>
	<g>
		<defs>
			<rect id="SVGID_3_" x="1.1" y="0.5" width="9.9" height="9.9"/>
		</defs>
		<clipPath id="SVGID_1_">
			<use xlink:href="#SVGID_3_"  style="overflow:visible;"/>
		</clipPath>
		<path class="st0" d="M7.8,0.5H2.1c-0.6,0-1,0.5-1,1v5.6c0,0.6,0.5,1,1,1h5.6c0.6,0,1-0.5,1-1V1.5C8.8,0.9,8.3,0.5,7.8,0.5L7.8,0.5
			z M7.8,0.5"/>
		<path class="st1" d="M10,2.6H4.3c-0.6,0-1,0.5-1,1v5.6c0,0.6,0.5,1,1,1H10c0.6,0,1-0.5,1-1V3.6C11,3.1,10.5,2.6,10,2.6L10,2.6z
			 M10,2.6"/>
		<path class="st2" d="M4.3,2.7h5.6c0.5,0,0.9,0.4,0.9,0.9v5.6c0,0.5-0.4,0.9-0.9,0.9H4.3c-0.2,0-0.5-0.1-0.7-0.3
			C3.4,9.8,3.3,9.5,3.3,9.3V3.6c0-0.2,0.1-0.5,0.3-0.7C3.8,2.8,4,2.7,4.3,2.7L4.3,2.7z M11,3.6c0-0.6-0.5-1.1-1.1-1.1H4.3
			C3.7,2.5,3.2,3,3.2,3.6v5.6c0,0.6,0.5,1.1,1.1,1.1h5.6c0.6,0,1.1-0.5,1.1-1.1V3.6z M11,3.6"/>
	</g>
	<path class="st3" d="M9.5,6.5L8.9,5.9c0,0,0,0,0-0.1V5c0,0,0,0,0-0.1c0,0,0,0-0.1,0H7.9c0,0,0,0-0.1,0L7.3,4.2c0,0-0.1,0-0.1,0
		L6.6,4.8c0,0,0,0-0.1,0H5.6c0,0,0,0-0.1,0c0,0,0,0,0,0.1v0.8c0,0,0,0,0,0.1L4.9,6.5c0,0,0,0.1,0,0.1l0.6,0.6c0,0,0,0,0,0.1v0.8
		c0,0.1,0,0.1,0.1,0.1h0.8c0,0,0,0,0.1,0l0.6,0.6c0,0,0.1,0,0.1,0l0.6-0.6c0,0,0,0,0.1,0h0.8c0.1,0,0.1,0,0.1-0.1V7.2c0,0,0,0,0-0.1
		l0.6-0.6C9.5,6.6,9.5,6.5,9.5,6.5C9.5,6.5,9.5,6.5,9.5,6.5L9.5,6.5z M8.3,6L7,7.3c0,0-0.1,0-0.1,0L6.1,6.5c0,0,0,0,0-0.1
		c0,0,0,0,0-0.1l0.2-0.2c0,0,0,0,0.1,0c0,0,0,0,0.1,0L7,6.8l1.1-1.1c0,0,0.1,0,0.1,0l0.2,0.2C8.4,5.9,8.4,6,8.3,6L8.3,6z M8.3,6"/>
</g>
</svg>
